<svg width="34" height="34" viewBox="0 0 34 34" fill="none" xmlns="http://www.w3.org/2000/svg">
<circle cx="16.8571" cy="16.8571" r="16.506" stroke="black" stroke-width="0.702381"/>
<path d="M17 13.3254C16.1456 13.3254 15.3104 13.5596 14.5999 13.9983C13.8895 14.437 13.3358 15.0606 13.0088 15.7902C12.6819 16.5197 12.5963 17.3225 12.763 18.097C12.9297 18.8715 13.3411 19.583 13.9453 20.1413C14.5495 20.6997 15.3192 21.08 16.1572 21.2341C16.9952 21.3881 17.8638 21.309 18.6532 21.0068C19.4426 20.7046 20.1173 20.1929 20.5919 19.5363C21.0666 18.8797 21.32 18.1078 21.32 17.3181C21.32 16.2592 20.8649 15.2436 20.0547 14.4948C19.2445 13.7461 18.1457 13.3254 17 13.3254ZM17 19.9799C16.4304 19.9799 15.8736 19.8238 15.4 19.5313C14.9263 19.2388 14.5572 18.8231 14.3392 18.3367C14.1212 17.8503 14.0642 17.3151 14.1753 16.7988C14.2865 16.2825 14.5608 15.8082 14.9635 15.4359C15.3663 15.0637 15.8795 14.8102 16.4381 14.7074C16.9968 14.6047 17.5759 14.6575 18.1021 14.8589C18.6284 15.0604 19.0782 15.4015 19.3946 15.8393C19.7111 16.277 19.88 16.7916 19.88 17.3181C19.8776 18.0234 19.5734 18.6991 19.0338 19.1978C18.4943 19.6965 17.7631 19.9777 17 19.9799ZM20.96 9H13.04C11.7033 9 10.4214 9.49077 9.47618 10.3643C8.531 11.2379 8 12.4227 8 13.6581V20.978C8 22.2135 8.531 23.3983 9.47618 24.2718C10.4214 25.1454 11.7033 25.6362 13.04 25.6362H20.96C22.2967 25.6362 23.5786 25.1454 24.5238 24.2718C25.469 23.3983 26 22.2135 26 20.978V13.6581C26 12.4227 25.469 11.2379 24.5238 10.3643C23.5786 9.49077 22.2967 9 20.96 9ZM24.56 20.978C24.56 21.415 24.4669 21.8476 24.286 22.2513C24.1051 22.655 23.8399 23.0218 23.5056 23.3308C23.1713 23.6397 22.7744 23.8848 22.3377 24.052C21.9009 24.2192 21.4328 24.3053 20.96 24.3053H13.04C12.5672 24.3053 12.0991 24.2192 11.6623 24.052C11.2256 23.8848 10.8287 23.6397 10.4944 23.3308C10.1601 23.0218 9.89495 22.655 9.71403 22.2513C9.53312 21.8476 9.44 21.415 9.44 20.978V13.6581C9.44 12.7757 9.81928 11.9294 10.4944 11.3054C11.1695 10.6814 12.0852 10.3309 13.04 10.3309H20.96C21.4328 10.3309 21.9009 10.417 22.3377 10.5842C22.7744 10.7514 23.1713 10.9965 23.5056 11.3054C23.8399 11.6144 24.1051 11.9812 24.286 12.3849C24.4669 12.7885 24.56 13.2212 24.56 13.6581V20.978ZM22.76 12.9927C22.76 13.1901 22.6967 13.3831 22.578 13.5472C22.4593 13.7114 22.2906 13.8393 22.0933 13.9149C21.896 13.9904 21.6788 14.0102 21.4693 13.9717C21.2598 13.9332 21.0674 13.8381 20.9163 13.6985C20.7653 13.5589 20.6624 13.381 20.6208 13.1874C20.5791 12.9938 20.6005 12.7931 20.6822 12.6107C20.764 12.4283 20.9024 12.2724 21.08 12.1627C21.2576 12.0531 21.4664 11.9945 21.68 11.9945C21.9664 11.9945 22.2411 12.0997 22.4437 12.2869C22.6462 12.4741 22.76 12.728 22.76 12.9927Z" fill="black"/>
</svg>
