<svg width="21" height="21" viewBox="0 0 21 21" fill="none" xmlns="http://www.w3.org/2000/svg">
<path d="M10.4404 5.75459C9.51362 5.75459 8.60761 6.02942 7.83699 6.54434C7.06636 7.05926 6.46573 7.79112 6.11105 8.6474C5.75637 9.50367 5.66357 10.4459 5.84439 11.3549C6.0252 12.2639 6.47151 13.0989 7.12687 13.7543C7.78224 14.4096 8.61722 14.8559 9.52623 15.0367C10.4352 15.2176 11.3775 15.1248 12.2337 14.7701C13.09 14.4154 13.8219 13.8148 14.3368 13.0441C14.8517 12.2735 15.1265 11.3675 15.1265 10.4407C15.1265 9.19786 14.6328 8.00593 13.754 7.12712C12.8752 6.2483 11.6833 5.75459 10.4404 5.75459ZM10.4404 13.5648C9.82256 13.5648 9.21856 13.3815 8.70481 13.0383C8.19106 12.695 7.79064 12.2071 7.55418 11.6362C7.31773 11.0654 7.25586 10.4372 7.37641 9.83121C7.49695 9.22521 7.79449 8.66855 8.2314 8.23164C8.66831 7.79473 9.22496 7.49719 9.83097 7.37665C10.437 7.25611 11.0651 7.31797 11.636 7.55443C12.2068 7.79088 12.6947 8.1913 13.038 8.70505C13.3813 9.2188 13.5645 9.82281 13.5645 10.4407C13.5619 11.2685 13.232 12.0616 12.6467 12.6469C12.0613 13.2322 11.2682 13.5622 10.4404 13.5648ZM14.736 0.677979H6.14485C4.69488 0.677979 3.3043 1.25398 2.27902 2.27926C1.25373 3.30454 0.677734 4.69513 0.677734 6.1451V14.7363C0.677734 16.1863 1.25373 17.5768 2.27902 18.6021C3.3043 19.6274 4.69488 20.2034 6.14485 20.2034H14.736C16.186 20.2034 17.5766 19.6274 18.6019 18.6021C19.6272 17.5768 20.2032 16.1863 20.2032 14.7363V6.1451C20.2032 4.69513 19.6272 3.30454 18.6019 2.27926C17.5766 1.25398 16.186 0.677979 14.736 0.677979ZM18.6411 14.7363C18.6411 15.2491 18.5401 15.7569 18.3439 16.2307C18.1476 16.7045 17.86 17.135 17.4974 17.4976C17.1347 17.8602 16.7042 18.1479 16.2305 18.3441C15.7567 18.5404 15.2489 18.6414 14.736 18.6414H6.14485C5.63203 18.6414 5.12423 18.5404 4.65044 18.3441C4.17666 18.1479 3.74616 17.8602 3.38354 17.4976C3.02092 17.135 2.73327 16.7045 2.53703 16.2307C2.34078 15.7569 2.23977 15.2491 2.23977 14.7363V6.1451C2.23977 5.1094 2.6512 4.11613 3.38354 3.38379C4.11589 2.65144 5.10916 2.24001 6.14485 2.24001H14.736C15.2489 2.24001 15.7567 2.34102 16.2305 2.53727C16.7042 2.73352 17.1347 3.02116 17.4974 3.38379C17.86 3.74641 18.1476 4.1769 18.3439 4.65069C18.5401 5.12447 18.6411 5.63227 18.6411 6.1451V14.7363ZM16.6886 5.36408C16.6886 5.59579 16.6199 5.82229 16.4911 6.01494C16.3624 6.2076 16.1794 6.35776 15.9654 6.44643C15.7513 6.5351 15.5158 6.5583 15.2885 6.5131C15.0612 6.46789 14.8525 6.35631 14.6887 6.19247C14.5248 6.02863 14.4132 5.81989 14.368 5.59263C14.3228 5.36538 14.346 5.12983 14.4347 4.91576C14.5234 4.70169 14.6735 4.51872 14.8662 4.38999C15.0588 4.26126 15.2854 4.19255 15.5171 4.19255C15.8278 4.19255 16.1257 4.31598 16.3454 4.53569C16.5652 4.75539 16.6886 5.05337 16.6886 5.36408Z" fill="#FBFFFE"/>
</svg>
