<svg width="34" height="34" viewBox="0 0 34 34" fill="none" xmlns="http://www.w3.org/2000/svg">
<circle cx="17.1428" cy="16.8571" r="16.506" stroke="black" stroke-width="0.702381"/>
<path d="M26 11.631C25.3375 11.9164 24.6233 12.104 23.8834 12.1937C24.6405 11.7615 25.2256 11.0765 25.501 10.2528C24.7868 10.6606 23.9952 10.946 23.1606 11.1091C22.4809 10.4077 21.5258 10 20.4417 10C18.4197 10 16.7677 11.5658 16.7677 13.4985C16.7677 13.7758 16.8021 14.0449 16.8623 14.2977C13.7992 14.1509 11.0717 12.7564 9.25621 10.6442C8.93786 11.158 8.75717 11.7615 8.75717 12.3976C8.75717 13.6127 9.40249 14.6891 10.4006 15.3007C9.78967 15.3007 9.2218 15.1376 8.72275 14.893V14.9175C8.72275 16.6137 9.99618 18.0327 11.6826 18.3507C11.1412 18.4911 10.5727 18.5107 10.022 18.4078C10.2557 19.103 10.7134 19.7113 11.3307 20.1472C11.948 20.5831 12.694 20.8247 13.4637 20.838C12.159 21.8169 10.5417 22.3461 8.87763 22.3385C8.58509 22.3385 8.29254 22.3222 8 22.2896C9.6348 23.2845 11.5793 23.8635 13.6616 23.8635C20.4417 23.8635 24.1673 18.5301 24.1673 13.9062C24.1673 13.7513 24.1673 13.6045 24.1587 13.4496C24.8815 12.9603 25.501 12.3405 26 11.631Z" fill="black"/>
</svg>
